<?xml version="1.0" encoding="UTF-8"?>
<!DOCTYPE svg PUBLIC "-//W3C//DTD SVG 1.1//EN" "http://www.w3.org/Graphics/SVG/1.1/DTD/svg11.dtd">
<!-- Creator: CorelDRAW 2019 (64-Bit) -->
<svg xmlns="http://www.w3.org/2000/svg" xml:space="preserve" width="40.0813mm" height="40.0291mm" version="1.1" style="shape-rendering:geometricPrecision; text-rendering:geometricPrecision; image-rendering:optimizeQuality; fill-rule:evenodd; clip-rule:evenodd"
viewBox="0 0 239.04 238.73"
 xmlns:xlink="http://www.w3.org/1999/xlink">
 <defs>
  <style type="text/css">
   <![CDATA[
    .fil0 {fill:#E16C40}
   ]]>
  </style>
 </defs>
 <g id="Capa_x0020_1">
  <metadata id="CorelCorpID_0Corel-Layer"/>
  <g id="_2038906244400">
   <path class="fil0" d="M92.68 89.63c-1.45,-1.72 -2.32,-3.37 -2.69,-4.91 -4.28,-15.89 18.92,-21.47 23,-6.25 0.56,1.52 0.44,3.45 0.12,5.69l-20.43 5.47z"/>
   <path class="fil0" d="M-0 238.73l0 -238.56 149.1 -0.17c119.92,0 119.92,178.91 0,178.91l-29.82 0.18 0.24 -59.64 29.58 0c16.65,0 29.82,-12.78 29.82,-29.82l0 -29.82 -89.46 0 -29.82 -59.71 0 59.89 0 178.74 -59.64 0z"/>
  </g>
 </g>
</svg>
